<svg height="512pt" viewBox="0 0 512 512" width="512pt" xmlns="http://www.w3.org/2000/svg" class="icon icon-chat"><title>chat</title><path d="M437 150h-45V75c0-41.355-33.645-75-75-75H75C33.645 0 0 33.645 0 75v150c0 36.219 25.809 66.523 60 73.492V345a15.01 15.01 0 0 0 7.922 13.227 15.01 15.01 0 0 0 15.398-.747L120 333.027V375c0 41.355 33.645 75 75 75h147.332l86.16 59.352a14.989 14.989 0 0 0 15.485.925A14.994 14.994 0 0 0 452 497v-48.508c34.191-6.969 60-37.273 60-73.492V225c0-41.355-33.645-75-75-75zM75 270c-24.813 0-45-20.188-45-45V75c0-24.813 20.188-45 45-45h242c24.813 0 45 20.188 45 45v150c0 24.813-20.188 45-45 45H165c-2.96 0-5.855.875-8.32 2.52L90 316.973V285c0-8.285-6.715-15-15-15zm407 105c0 24.813-20.188 45-45 45-8.285 0-15 6.715-15 15v33.453l-66.488-45.805A14.993 14.993 0 0 0 347 420H195c-24.813 0-45-20.188-45-45v-61.973L169.543 300H317c41.355 0 75-33.645 75-75v-45h45c24.813 0 45 20.188 45 45zm0 0"/><path d="M105 105h122c8.285 0 15-6.715 15-15s-6.715-15-15-15H105c-8.285 0-15 6.715-15 15s6.715 15 15 15zm0 0M105 165h122c8.285 0 15-6.715 15-15s-6.715-15-15-15H105c-8.285 0-15 6.715-15 15s6.715 15 15 15zm0 0M105 225h182c8.285 0 15-6.715 15-15s-6.715-15-15-15H105c-8.285 0-15 6.715-15 15s6.715 15 15 15zm0 0M302 90c0 8.285-6.715 15-15 15s-15-6.715-15-15 6.715-15 15-15 15 6.715 15 15zm0 0M302 150c0 8.285-6.715 15-15 15s-15-6.715-15-15 6.715-15 15-15 15 6.715 15 15zm0 0M407 345H227c-8.285 0-15 6.715-15 15s6.715 15 15 15h180c8.285 0 15-6.715 15-15s-6.715-15-15-15zm0 0"/></svg>