<svg xmlns="http://www.w3.org/2000/svg" viewBox="0 0 512.001 512.001" class="icon icon-home-color"><title>home color</title><path fill="#feda9b" d="M427.226 229.001L228.399 75.169 30 229.001v273h397.226z"/><path fill="#fff" d="M189 256.001h83.992v121.98H189z"/><path fill="#ff5d5d" d="M382.832 229.001L229 75.169 75.168 229.001H10l219-219 190.001 190.001z"/><path fill="#ffc66c" d="M70 292.001h80v80H70z"/><path fill="#c9f3ff" d="M502 219.001v283H219z"/><path d="M339.711 452.001H452V339.712L339.711 452.001z" fill="#fff"/><path d="M430.983 224.611l25.005-68.281-68.281 25.005L177.69 391.354c-11.95 11.95-11.95 31.325 0 43.275s31.325 11.95 43.275 0l210.018-210.018z" fill="#ffb954"/><path fill="#686c83" d="M430.983 224.611l25.005-68.28-68.28 25.005z"/><path d="M190.527 378.516l-12.837 12.837c-11.95 11.95-11.95 31.325 0 43.275s31.325 11.95 43.275 0l12.837-12.837-43.275-43.275z" fill="#ff5d5d"/><circle cx="229" cy="189.001" r="28" fill="#ff8e4b"/><path d="M368 159.001c2.63 0 5.21-1.07 7.069-2.93 1.86-1.86 2.931-4.44 2.931-7.07s-1.07-5.21-2.931-7.07c-1.859-1.86-4.439-2.93-7.069-2.93s-5.21 1.07-7.07 2.93a10.058 10.058 0 0 0-2.93 7.07c0 2.63 1.069 5.21 2.93 7.07s4.44 2.93 7.07 2.93zM150 282.001H70c-5.522 0-10 4.477-10 10v80c0 5.523 4.478 10 10 10h80c5.522 0 10-4.477 10-10v-80c0-5.523-4.477-10-10-10zm-10 80H80v-60h60v60zM505.827 209.762a10 10 0 0 0-10.898 2.167L393.031 313.827l-.005.005a.018.018 0 0 0-.004.005L274.238 432.621l-.005.005-.005.005-62.299 62.299A10 10 0 1 0 219 512.001h283c5.522 0 10-4.477 10-10v-283a10 10 0 0 0-6.173-9.239zM492 492.001H243.143l38.161-38.161 9.546 9.546c1.953 1.953 4.512 2.929 7.071 2.929s5.118-.976 7.071-2.929c3.905-3.905 3.905-10.237 0-14.143l-9.546-9.546 25.456-25.456 9.545 9.545a9.968 9.968 0 0 0 7.071 2.929 9.972 9.972 0 0 0 7.071-2.929c3.905-3.905 3.905-10.237 0-14.142l-9.546-9.546 25.456-25.456 9.546 9.546c1.953 1.953 4.512 2.929 7.071 2.929s5.118-.976 7.071-2.929c3.905-3.905 3.905-10.237 0-14.143l-9.546-9.546 25.455-25.455 9.546 9.546c1.953 1.953 4.512 2.929 7.071 2.929s5.118-.976 7.071-2.929c3.905-3.905 3.905-10.237 0-14.143l-9.546-9.546 25.456-25.456 9.545 9.545a9.968 9.968 0 0 0 7.071 2.929 9.972 9.972 0 0 0 7.071-2.929c3.905-3.905 3.905-10.237 0-14.142l-9.546-9.546L492 243.143v248.858z"/><path d="M455.827 330.473a10 10 0 0 0-10.898 2.167L332.64 444.93a10.002 10.002 0 0 0 7.071 17.071H452c5.522 0 10-4.477 10-10V339.712a10 10 0 0 0-6.173-9.239zM442 442.001h-78.146L442 363.854v78.147zM199.327 453.573c10.396 0 20.795-3.958 28.709-11.872l84.332-84.332c3.905-3.905 3.905-10.237 0-14.142s-10.235-3.905-14.143 0l-63.892 63.892-29.133-29.133 182.707-182.707 29.133 29.133-69.815 69.816c-3.905 3.905-3.905 10.237 0 14.142 3.906 3.905 10.236 3.905 14.143 0l76.686-76.686a10.005 10.005 0 0 0 2.318-3.632l25.006-68.281a10 10 0 0 0-12.828-12.829l-68.281 25.005a10.011 10.011 0 0 0-3.633 2.319l-19.199 19.199L236.071 68.098a10.003 10.003 0 0 0-14.142 0L71.026 219.001H34.143L229 24.143l106.929 106.929c3.906 3.905 10.236 3.905 14.143 0 3.905-3.905 3.905-10.237 0-14.143l-114-114c-3.906-3.905-10.236-3.905-14.143 0l-219 219A9.999 9.999 0 1 0 10 239.001h10v263c0 5.523 4.478 10 10 10h158.986c5.522 0 10-4.477 10-10s-4.478-10-10-10H40v-253h35.168c2.652 0 5.195-1.054 7.071-2.929L229 89.311l118.294 118.295L199 355.901v-89.9h70c5.522 0 10-4.477 10-10s-4.478-10-10-10h-80c-5.522 0-10 4.477-10 10v116c0 1.167.21 2.281.577 3.322l-8.959 8.959c-15.83 15.83-15.83 41.588 0 57.418 7.916 7.916 18.311 11.874 28.709 11.873zm227.759-247.402l-20.938-20.938 33.038-12.099-12.1 33.037zM184.761 398.425l6.298-6.298 29.133 29.133-6.298 6.298c-3.891 3.891-9.063 6.034-14.566 6.034s-10.676-2.143-14.566-6.034c-3.892-3.891-6.034-9.064-6.034-14.566s2.141-10.676 6.033-14.567z"/><path d="M322.55 318.901a10.093 10.093 0 0 0-2.93 7.07c0 2.64 1.069 5.21 2.93 7.08 1.86 1.86 4.43 2.92 7.07 2.92 2.63 0 5.21-1.06 7.069-2.92 1.86-1.87 2.931-4.45 2.931-7.08s-1.07-5.2-2.931-7.07c-1.859-1.86-4.439-2.93-7.069-2.93s-5.21 1.07-7.07 2.93zM267 189.001c0-20.953-17.047-38-38-38s-38 17.047-38 38 17.047 38 38 38 38-17.047 38-38zm-56 0c0-9.925 8.075-18 18-18s18 8.075 18 18-8.075 18-18 18-18-8.074-18-18z"/></svg>